<svg version="1.1" id="Layer_1" xmlns="http://www.w3.org/2000/svg" xmlns:xlink="http://www.w3.org/1999/xlink" x="0px" y="0px"
	 width="100%" viewBox="0 0 401 102" enable-background="new 0 0 401 102" xml:space="preserve">
<path fill="#FDFDFE" opacity="1.000000" stroke="none" 
	d="
M37.000000,1.000000 
	C158.604431,1.000000 280.208862,1.000000 401.906647,1.000000 
	C401.906647,34.920143 401.906647,68.840630 401.906647,102.880554 
	C268.333405,102.880554 134.666718,102.880554 1.001781,102.880554 
	C1.001781,68.962837 1.001781,34.981419 1.002672,1.000000 
	C2.669394,1.000000 4.335226,1.000000 6.341027,1.342248 
	C3.584421,2.460192 2.792695,4.458286 2.943194,7.538647 
	C3.202965,12.855556 3.008867,18.194588 3.007141,23.524336 
	C2.999317,47.674816 2.995369,71.825294 2.980057,95.975777 
	C2.978448,98.512932 2.574273,101.080338 6.541859,101.023064 
	C16.699657,100.876434 26.869764,101.193069 37.017101,100.828156 
	C45.930664,100.507607 51.317326,95.680908 52.252178,86.699165 
	C53.058739,78.950035 52.580414,71.074860 52.901752,63.264935 
	C53.132137,57.665627 51.180576,53.607098 45.205730,51.332870 
	C50.476658,49.500145 52.862865,46.030403 52.868340,40.971283 
	C52.876087,33.809494 53.019215,26.644230 52.845867,19.486713 
	C52.586098,8.760657 47.629303,3.341833 37.037277,1.632328 
	C37.016476,1.422129 37.000000,1.000000 37.000000,1.000000 
M192.167908,28.520443 
	C192.174591,49.183681 192.136703,69.847069 192.204575,90.510109 
	C192.245789,103.058052 191.006973,100.569862 202.898163,101.096985 
	C207.748779,101.311996 209.169678,99.782249 209.072922,94.949768 
	C208.778549,80.245338 208.966232,65.531265 208.966232,50.820942 
	C213.416061,65.984383 217.328003,81.178932 220.611511,96.508095 
	C221.875732,102.410095 225.853714,100.600113 229.357834,101.030060 
	C233.076157,101.486290 234.272385,99.478203 234.970993,96.302826 
	C236.895111,87.557304 238.976501,78.845779 241.057098,70.135475 
	C242.565170,63.822067 244.171234,57.532066 245.733612,51.231628 
	C246.647018,63.903763 246.527145,76.361763 246.678162,88.816490 
	C246.856598,103.534203 244.304504,100.600212 259.073425,101.044754 
	C262.097839,101.135788 263.239990,100.098961 263.233093,97.063873 
	C263.173279,70.734947 263.183258,44.405785 263.229614,18.076792 
	C263.234741,15.154416 262.216675,13.832605 259.116150,13.978900 
	C254.959412,14.175027 250.776230,14.207603 246.623596,13.972104 
	C243.104462,13.772531 241.664978,15.219622 240.887497,18.596138 
	C238.432892,29.256374 235.664154,39.844643 232.984451,50.452549 
	C231.392258,56.755474 229.738953,63.042961 228.113113,69.337387 
	C223.430344,53.385479 219.629364,37.590458 215.602066,21.853361 
	C213.241760,12.630299 214.331177,14.080297 205.458755,14.042851 
	C192.186935,13.986839 192.186752,14.029359 192.167908,28.520443 
M363.457520,22.023674 
	C361.574402,16.248125 358.450226,13.035854 351.520264,13.803570 
	C347.198517,14.282345 345.921661,15.251654 345.957581,19.602549 
	C346.154205,43.428516 346.053192,67.256950 346.051270,91.084541 
	C346.050476,101.026718 346.053680,100.801468 356.138092,101.100021 
	C360.667877,101.234123 362.192047,100.047310 362.080566,95.308868 
	C361.761475,81.743935 361.968262,68.166618 361.968262,54.594173 
	C363.460968,55.780331 364.257629,57.132130 364.949554,58.535557 
	C371.334961,71.486557 377.639221,84.478363 384.159180,97.361099 
	C384.924225,98.872734 386.723785,100.592636 388.259705,100.832397 
	C391.625336,101.357765 395.129578,100.995140 399.195435,100.995140 
	C399.195435,98.452316 399.195496,96.501297 399.195465,94.550278 
	C399.195038,71.222572 399.193695,47.894871 399.194519,24.567167 
	C399.194885,13.944767 399.189667,14.202735 388.770081,13.914313 
	C384.094116,13.784878 383.183746,15.637977 383.240753,19.727978 
	C383.412659,32.055878 383.307556,44.387817 383.276581,56.718098 
	C383.273682,57.871788 383.031036,59.024879 382.773315,61.288013 
	C376.096527,47.665558 369.970947,35.167744 363.457520,22.023674 
M317.994110,90.557770 
	C318.647369,93.127151 319.095856,95.775826 320.045990,98.230286 
	C320.478699,99.348076 321.853516,100.793892 322.886200,100.865707 
	C327.151978,101.162392 331.450378,100.990044 336.239288,100.990044 
	C335.904388,98.923851 335.770477,97.462242 335.423767,96.052994 
	C329.527039,72.085953 323.627502,48.119537 317.675323,24.166218 
	C315.150360,14.004900 315.094574,14.018967 304.502411,14.024953 
	C302.670471,14.025988 300.802063,14.256774 299.014038,13.976448 
	C295.109772,13.364350 293.839172,15.419162 293.020874,18.794397 
	C288.803314,36.189583 284.406677,53.541264 280.106964,70.916641 
	C277.692322,80.674454 275.344391,90.448776 272.774811,101.002609 
	C277.246033,101.002609 281.043579,100.780632 284.801727,101.070229 
	C288.025269,101.318626 289.259247,99.805557 289.885498,97.002495 
	C290.853149,92.671082 291.978271,88.374847 293.082672,83.876244 
	C298.912750,83.876244 304.425201,84.241974 309.864166,83.766975 
	C314.700684,83.344589 317.441284,84.714409 317.994110,90.557770 
M111.166367,41.237457 
	C110.169884,37.208809 109.229393,33.165264 108.162453,29.155357 
	C106.889732,24.372059 106.931488,17.710594 103.789665,15.366453 
	C100.387520,12.828084 93.963303,14.441814 88.874794,14.027449 
	C85.281708,13.734858 83.632553,14.922880 82.730461,18.676231 
	C76.985672,42.578758 70.938965,66.408646 65.017357,90.268822 
	C64.196373,93.576859 63.516876,96.920021 62.603977,100.996712 
	C66.885620,100.996712 70.350517,100.811554 73.786041,101.049858 
	C77.086876,101.278816 78.782303,100.039062 79.184784,96.755234 
	C79.365036,95.284538 79.906685,93.859100 80.271622,92.409927 
	C82.444305,83.782158 82.443100,83.767296 91.502052,83.789841 
	C95.993736,83.801018 101.765053,82.201721 104.624031,84.385666 
	C107.600746,86.659546 107.624115,92.667313 109.237526,96.929390 
	C109.808235,98.436989 111.145721,100.622429 112.328949,100.755356 
	C116.503960,101.224396 120.763847,100.937843 125.979858,100.937843 
	C120.956451,80.606522 116.189995,61.315155 111.166367,41.237457 
M166.138672,77.499969 
	C166.138672,62.062813 166.138672,46.625656 166.138672,30.675306 
	C168.428543,30.675306 170.058273,30.691263 171.687622,30.672766 
	C184.013702,30.532824 182.692795,32.421280 182.819672,18.848541 
	C182.853653,15.211905 181.475128,13.934277 177.776230,14.000046 
	C166.619904,14.198411 155.457687,14.060103 144.297775,14.063841 
	C132.885315,14.067664 133.087830,14.076518 132.905106,25.381605 
	C132.834854,29.727205 134.488235,30.961626 138.438004,30.730247 
	C141.861374,30.529703 145.305801,30.688547 149.230896,30.688547 
	C149.230896,33.180477 149.230759,34.974850 149.230911,36.769222 
	C149.232330,54.092106 149.104736,71.416260 149.274887,88.737488 
	C149.418289,103.334747 146.638123,100.641388 162.146896,101.039749 
	C165.217346,101.118614 166.255783,99.997864 166.179810,96.987610 
	C166.024353,90.828636 166.136688,84.662903 166.138672,77.499969 
z"/>
<path fill="#5473FC" opacity="1.000000" stroke="none" 
	d="
M37.058079,1.842527 
	C47.629303,3.341833 52.586098,8.760657 52.845867,19.486713 
	C53.019215,26.644230 52.876087,33.809494 52.868340,40.971283 
	C52.862865,46.030403 50.476658,49.500145 45.205730,51.332870 
	C51.180576,53.607098 53.132137,57.665627 52.901752,63.264935 
	C52.580414,71.074860 53.058739,78.950035 52.252178,86.699165 
	C51.317326,95.680908 45.930664,100.507607 37.017101,100.828156 
	C26.869764,101.193069 16.699657,100.876434 6.541859,101.023064 
	C2.574273,101.080338 2.978448,98.512932 2.980057,95.975777 
	C2.995369,71.825294 2.999317,47.674816 3.007141,23.524336 
	C3.008867,18.194588 3.202965,12.855556 2.943194,7.538647 
	C2.792695,4.458286 3.584421,2.460192 6.840499,1.342248 
	C7.750000,1.000000 8.500000,1.000000 9.868650,1.350720 
	C19.344227,1.748469 28.201153,1.795498 37.058079,1.842527 
M36.087646,37.145504 
	C36.089058,35.478863 36.102058,33.812141 36.090057,32.145596 
	C35.984825,17.532431 38.433437,17.666744 21.221985,18.184055 
	C20.943380,18.192429 20.673424,18.488600 20.351191,18.678967 
	C20.351191,26.719397 20.351191,34.771736 20.351191,43.067978 
	C24.053419,43.067978 27.374126,43.040947 30.694195,43.075481 
	C34.103817,43.110939 36.085205,41.671211 36.087646,37.145504 
M23.693335,84.747200 
	C25.690525,84.745491 27.687902,84.725380 29.684866,84.745804 
	C34.162601,84.791595 36.462502,82.914764 36.194954,78.113785 
	C35.945278,73.633446 36.481190,69.084633 35.930672,64.658073 
	C35.713902,62.915092 33.686386,60.308044 32.140640,60.034973 
	C28.334017,59.362511 24.328705,59.814762 20.004416,59.814762 
	C20.004416,67.660866 19.912462,74.954765 20.126760,82.239647 
	C20.152088,83.100609 21.855867,83.912193 23.693335,84.747200 
z"/>
<path fill="#D1D8F3" opacity="1.000000" stroke="none" 
	d="
M37.037277,1.632328 
	C28.201153,1.795498 19.344227,1.748469 10.243650,1.350720 
	C18.687563,1.000000 27.375128,1.000000 36.531345,1.000000 
	C37.000000,1.000000 37.016476,1.422129 37.037277,1.632328 
z"/>
<path fill="#054CAC" opacity="1.000000" stroke="none" 
	d="
M192.168671,28.025330 
	C192.186752,14.029359 192.186935,13.986839 205.458755,14.042851 
	C214.331177,14.080297 213.241760,12.630299 215.602066,21.853361 
	C219.629364,37.590458 223.430344,53.385479 228.113113,69.337387 
	C229.738953,63.042961 231.392258,56.755474 232.984451,50.452549 
	C235.664154,39.844643 238.432892,29.256374 240.887497,18.596138 
	C241.664978,15.219622 243.104462,13.772531 246.623596,13.972104 
	C250.776230,14.207603 254.959412,14.175027 259.116150,13.978900 
	C262.216675,13.832605 263.234741,15.154416 263.229614,18.076792 
	C263.183258,44.405785 263.173279,70.734947 263.233093,97.063873 
	C263.239990,100.098961 262.097839,101.135788 259.073425,101.044754 
	C244.304504,100.600212 246.856598,103.534203 246.678162,88.816490 
	C246.527145,76.361763 246.647018,63.903763 245.733612,51.231628 
	C244.171234,57.532066 242.565170,63.822067 241.057098,70.135475 
	C238.976501,78.845779 236.895111,87.557304 234.970993,96.302826 
	C234.272385,99.478203 233.076157,101.486290 229.357834,101.030060 
	C225.853714,100.600113 221.875732,102.410095 220.611511,96.508095 
	C217.328003,81.178932 213.416061,65.984383 208.966232,50.820942 
	C208.966232,65.531265 208.778549,80.245338 209.072922,94.949768 
	C209.169678,99.782249 207.748779,101.311996 202.898163,101.096985 
	C191.006973,100.569862 192.245789,103.058052 192.204575,90.510109 
	C192.136703,69.847069 192.174591,49.183681 192.168671,28.025330 
z"/>
<path fill="#064CAB" opacity="1.000000" stroke="none" 
	d="
M363.651428,22.346802 
	C369.970947,35.167744 376.096527,47.665558 382.773315,61.288013 
	C383.031036,59.024879 383.273682,57.871788 383.276581,56.718098 
	C383.307556,44.387817 383.412659,32.055878 383.240753,19.727978 
	C383.183746,15.637977 384.094116,13.784878 388.770081,13.914313 
	C399.189667,14.202735 399.194885,13.944767 399.194519,24.567167 
	C399.193695,47.894871 399.195038,71.222572 399.195465,94.550278 
	C399.195496,96.501297 399.195435,98.452316 399.195435,100.995140 
	C395.129578,100.995140 391.625336,101.357765 388.259705,100.832397 
	C386.723785,100.592636 384.924225,98.872734 384.159180,97.361099 
	C377.639221,84.478363 371.334961,71.486557 364.949554,58.535557 
	C364.257629,57.132130 363.460968,55.780331 361.968262,54.594173 
	C361.968262,68.166618 361.761475,81.743935 362.080566,95.308868 
	C362.192047,100.047310 360.667877,101.234123 356.138092,101.100021 
	C346.053680,100.801468 346.050476,101.026718 346.051270,91.084541 
	C346.053192,67.256950 346.154205,43.428516 345.957581,19.602549 
	C345.921661,15.251654 347.198517,14.282345 351.520264,13.803570 
	C358.450226,13.035854 361.574402,16.248125 363.651428,22.346802 
z"/>
<path fill="#064CAC" opacity="1.000000" stroke="none" 
	d="
M317.903503,90.152634 
	C317.441284,84.714409 314.700684,83.344589 309.864166,83.766975 
	C304.425201,84.241974 298.912750,83.876244 293.082672,83.876244 
	C291.978271,88.374847 290.853149,92.671082 289.885498,97.002495 
	C289.259247,99.805557 288.025269,101.318626 284.801727,101.070229 
	C281.043579,100.780632 277.246033,101.002609 272.774811,101.002609 
	C275.344391,90.448776 277.692322,80.674454 280.106964,70.916641 
	C284.406677,53.541264 288.803314,36.189583 293.020874,18.794397 
	C293.839172,15.419162 295.109772,13.364350 299.014038,13.976448 
	C300.802063,14.256774 302.670471,14.025988 304.502411,14.024953 
	C315.094574,14.018967 315.150360,14.004900 317.675323,24.166218 
	C323.627502,48.119537 329.527039,72.085953 335.423767,96.052994 
	C335.770477,97.462242 335.904388,98.923851 336.239288,100.990044 
	C331.450378,100.990044 327.151978,101.162392 322.886200,100.865707 
	C321.853516,100.793892 320.478699,99.348076 320.045990,98.230286 
	C319.095856,95.775826 318.647369,93.127151 317.903503,90.152634 
M311.974792,67.749725 
	C309.614380,57.623463 307.253967,47.497200 304.599335,36.108761 
	C301.885223,47.862629 299.481628,58.271797 297.090607,68.626381 
	C302.253876,68.626381 307.035034,68.626381 311.974792,67.749725 
z"/>
<path fill="#5574FB" opacity="1.000000" stroke="none" 
	d="
M111.294952,41.630623 
	C116.189995,61.315155 120.956451,80.606522 125.979858,100.937843 
	C120.763847,100.937843 116.503960,101.224396 112.328949,100.755356 
	C111.145721,100.622429 109.808235,98.436989 109.237526,96.929390 
	C107.624115,92.667313 107.600746,86.659546 104.624031,84.385666 
	C101.765053,82.201721 95.993736,83.801018 91.502052,83.789841 
	C82.443100,83.767296 82.444305,83.782158 80.271622,92.409927 
	C79.906685,93.859100 79.365036,95.284538 79.184784,96.755234 
	C78.782303,100.039062 77.086876,101.278816 73.786041,101.049858 
	C70.350517,100.811554 66.885620,100.996712 62.603977,100.996712 
	C63.516876,96.920021 64.196373,93.576859 65.017357,90.268822 
	C70.938965,66.408646 76.985672,42.578758 82.730461,18.676231 
	C83.632553,14.922880 85.281708,13.734858 88.874794,14.027449 
	C93.963303,14.441814 100.387520,12.828084 103.789665,15.366453 
	C106.931488,17.710594 106.889732,24.372059 108.162453,29.155357 
	C109.229393,33.165264 110.169884,37.208809 111.294952,41.630623 
M96.011398,43.541130 
	C95.508957,41.610828 95.006516,39.680531 94.504074,37.750229 
	C94.192398,37.768497 93.880714,37.786766 93.569038,37.805035 
	C91.226997,48.027821 88.884956,58.250610 86.455956,68.852936 
	C91.993126,68.852936 96.746941,68.852936 101.925926,68.852936 
	C99.937119,60.455330 98.029358,52.399979 96.011398,43.541130 
z"/>
<path fill="#5775FB" opacity="1.000000" stroke="none" 
	d="
M166.138702,77.999962 
	C166.136688,84.662903 166.024353,90.828636 166.179810,96.987610 
	C166.255783,99.997864 165.217346,101.118614 162.146896,101.039749 
	C146.638123,100.641388 149.418289,103.334747 149.274887,88.737488 
	C149.104736,71.416260 149.232330,54.092106 149.230911,36.769222 
	C149.230759,34.974850 149.230896,33.180477 149.230896,30.688547 
	C145.305801,30.688547 141.861374,30.529703 138.438004,30.730247 
	C134.488235,30.961626 132.834854,29.727205 132.905106,25.381605 
	C133.087830,14.076518 132.885315,14.067664 144.297775,14.063841 
	C155.457687,14.060103 166.619904,14.198411 177.776230,14.000046 
	C181.475128,13.934277 182.853653,15.211905 182.819672,18.848541 
	C182.692795,32.421280 184.013702,30.532824 171.687622,30.672766 
	C170.058273,30.691263 168.428543,30.675306 166.138672,30.675306 
	C166.138672,46.625656 166.138672,62.062813 166.138702,77.999962 
z"/>
<path fill="#FEFEFF" opacity="1.000000" stroke="none" 
	d="
M36.081772,37.604729 
	C36.085205,41.671211 34.103817,43.110939 30.694195,43.075481 
	C27.374126,43.040947 24.053419,43.067978 20.351191,43.067978 
	C20.351191,34.771736 20.351191,26.719397 20.351191,18.678967 
	C20.673424,18.488600 20.943380,18.192429 21.221985,18.184055 
	C38.433437,17.666744 35.984825,17.532431 36.090057,32.145596 
	C36.102058,33.812141 36.089058,35.478863 36.081772,37.604729 
z"/>
<path fill="#FCFDFF" opacity="1.000000" stroke="none" 
	d="
M23.237465,84.746933 
	C21.855867,83.912193 20.152088,83.100609 20.126760,82.239647 
	C19.912462,74.954765 20.004416,67.660866 20.004416,59.814762 
	C24.328705,59.814762 28.334017,59.362511 32.140640,60.034973 
	C33.686386,60.308044 35.713902,62.915092 35.930672,64.658073 
	C36.481190,69.084633 35.945278,73.633446 36.194954,78.113785 
	C36.462502,82.914764 34.162601,84.791595 29.684866,84.745804 
	C27.687902,84.725380 25.690525,84.745491 23.237465,84.746933 
z"/>
<path fill="#FAFBFC" opacity="1.000000" stroke="none" 
	d="
M311.895477,68.188049 
	C307.035034,68.626381 302.253876,68.626381 297.090607,68.626381 
	C299.481628,58.271797 301.885223,47.862629 304.599335,36.108761 
	C307.253967,47.497200 309.614380,57.623463 311.895477,68.188049 
z"/>
<path fill="#F9FAFE" opacity="1.000000" stroke="none" 
	d="
M96.066498,43.942879 
	C98.029358,52.399979 99.937119,60.455330 101.925926,68.852936 
	C96.746941,68.852936 91.993126,68.852936 86.455956,68.852936 
	C88.884956,58.250610 91.226997,48.027821 93.569038,37.805035 
	C93.880714,37.786766 94.192398,37.768497 94.504074,37.750229 
	C95.006516,39.680531 95.508957,41.610828 96.066498,43.942879 
z"/>
</svg>